<?xml version="1.0" encoding="utf-8"?>
<!-- Generator: Adobe Illustrator 16.0.4, SVG Export Plug-In . SVG Version: 6.00 Build 0)  -->
<!DOCTYPE svg PUBLIC "-//W3C//DTD SVG 1.1//EN" "http://www.w3.org/Graphics/SVG/1.1/DTD/svg11.dtd">
<svg version="1.1" id="Capa_1" xmlns:svg="http://www.w3.org/2000/svg"
	 xmlns="http://www.w3.org/2000/svg" xmlns:xlink="http://www.w3.org/1999/xlink" x="0px" y="0px" width="100px" height="100px"
	 viewBox="0 0 100 100" enable-background="new 0 0 100 100" xml:space="preserve">
<g>
	<path d="M0,17v4v58v4h100v-4V21v-4H0z M41.375,27.062c0.917-1.678,2.181-2.942,3.781-3.781C46.752,22.434,48.566,22,50.625,22
		c1.738,0,3.299,0.355,4.656,1.031c1.357,0.685,2.375,1.651,3.094,2.906c0.711,1.254,1.094,2.611,1.094,4.094
		c0,1.768-0.541,3.347-1.625,4.781c-1.365,1.8-3.118,2.719-5.25,2.719c-0.572,0-1.02-0.108-1.312-0.312
		c-0.288-0.204-0.469-0.484-0.562-0.875c-0.812,0.79-1.749,1.188-2.812,1.188c-1.149,0-2.12-0.397-2.875-1.188
		c-0.755-0.798-1.125-1.876-1.125-3.188c0-1.637,0.43-3.094,1.344-4.438c1.108-1.637,2.52-2.469,4.25-2.469
		c1.23,0,2.165,0.461,2.75,1.406l0.25-1.125h2.75l-1.562,7.438c-0.098,0.472-0.156,0.768-0.156,0.906
		c0,0.18,0.045,0.317,0.125,0.406c0.077,0.089,0.172,0.125,0.281,0.125c0.337,0,0.758-0.186,1.281-0.594
		c0.707-0.521,1.285-1.246,1.719-2.125c0.438-0.888,0.656-1.829,0.656-2.781c0-1.702-0.613-3.125-1.844-4.281
		c-1.234-1.141-2.951-1.719-5.156-1.719c-1.876,0-3.446,0.382-4.75,1.156c-1.299,0.758-2.298,1.857-2.969,3.25
		c-0.658,1.384-0.969,2.836-0.969,4.344c0,1.458,0.332,2.803,1.062,4c0.743,1.206,1.797,2.04,3.125,2.594
		c1.332,0.546,2.849,0.844,4.562,0.844c1.649,0,3.088-0.223,4.281-0.688c1.189-0.464,2.148-1.166,2.875-2.094H60
		c-0.689,1.409-1.758,2.506-3.188,3.312C55.172,41.537,53.195,42,50.844,42c-2.287,0-4.281-0.382-5.938-1.156
		c-1.665-0.774-2.875-1.899-3.688-3.406C40.411,35.931,40,34.276,40,32.5C39.999,30.554,40.453,28.749,41.375,27.062z M96,23.469
		L65.969,49.031L96,77.312V79h-4.031L62.906,51.656L50,62.625L37.094,51.656L8.031,79H4v-1.688l30.031-28.281L4,23.469V21h3.281
		L50,57.375L92.719,21H96V23.469z"/>
	<path d="M49.781,28.125c-0.593,0-1.18,0.223-1.688,0.688c-0.504,0.464-0.869,1.113-1.125,1.969s-0.375,1.621-0.375,2.281
		c0,0.88,0.178,1.522,0.531,1.938c0.362,0.416,0.785,0.625,1.312,0.625c0.394,0,0.779-0.086,1.125-0.281
		c0.264-0.139,0.525-0.394,0.781-0.688c0.365-0.423,0.674-1.029,0.938-1.844c0.265-0.807,0.406-1.549,0.406-2.25
		c0-0.782-0.197-1.397-0.562-1.812C50.764,28.327,50.333,28.125,49.781,28.125z"/>
</g>
</svg>
